HIERARCHY
ROOT SpineBase
{
  OFFSET 0.000000 0.000000 0.000000
  CHANNELS 6 Xposition Yposition Zposition Zrotation Xrotation Yrotation
  JOINT SpineMid
  {
    OFFSET 0.000000 33.526239 0.000000
    CHANNELS 3 Zrotation Xrotation Yrotation
    JOINT SpineShoulder
    {
      OFFSET -0.240389 24.866383 -0.796792
      CHANNELS 3 Zrotation Xrotation Yrotation
      JOINT Neck
      {
        OFFSET -0.150615 8.263227 -0.641266
        CHANNELS 3 Zrotation Xrotation Yrotation
        JOINT Head
        {
          OFFSET 12.083024 -3.190569 0.508875
          CHANNELS 3 Zrotation Xrotation Yrotation
          End Site
          {
            OFFSET 0 0 0
          }
        }
      }
      JOINT ShoulderLeft
      {
        OFFSET -12.662678 -7.240058 -11.279408
        CHANNELS 3 Zrotation Xrotation Yrotation
        JOINT ElbowLeft
        {
          OFFSET -6.984568 -27.746372 4.137093
          CHANNELS 3 Zrotation Xrotation Yrotation
          JOINT WristLeft
          {
            OFFSET -5.473529 -21.989196 6.638115
            CHANNELS 3 Zrotation Xrotation Yrotation
            JOINT HandLeft
            {
              OFFSET 0.142166 -5.878162 0.552424
              CHANNELS 3 Zrotation Xrotation Yrotation
              JOINT HandTipLeft
              {
                OFFSET -1.401819 -6.184988 0.343705
                CHANNELS 3 Zrotation Xrotation Yrotation
                End Site
                {
                  OFFSET 0 0 0
                }
              }
              JOINT ThumbLeft
              {
                OFFSET 3.023168 0.977152 -3.305306
                CHANNELS 3 Zrotation Xrotation Yrotation
                End Site
                {
                  OFFSET 0 0 0
                }
              }
            }
          }
        }
      }
      JOINT ShoulderRight
      {
        OFFSET -1.741958 -0.447244 -8.923496
        CHANNELS 3 Zrotation Xrotation Yrotation
        JOINT ElbowRight
        {
          OFFSET 14.688917 -23.151384 7.064285
          CHANNELS 3 Zrotation Xrotation Yrotation
          JOINT WristRight
          {
            OFFSET 8.177926 -25.849058 7.798934
            CHANNELS 3 Zrotation Xrotation Yrotation
            JOINT HandRight
            {
              OFFSET 4.050954 -8.481511 5.304207
              CHANNELS 3 Zrotation Xrotation Yrotation
              JOINT HandTipRight
              {
                OFFSET 1.004418 -8.123019 0.754781
                CHANNELS 3 Zrotation Xrotation Yrotation
                End Site
                {
                  OFFSET 0 0 0
                }
              }
              JOINT ThumbRight
              {
                OFFSET -3.592274 -0.630579 -2.118330
                CHANNELS 3 Zrotation Xrotation Yrotation
                End Site
                {
                  OFFSET 0 0 0
                }
              }
            }
          }
        }
      }
    }
  }
  JOINT HipLeft
  {
    OFFSET -6.963644 1.654239 -4.706130
    CHANNELS 3 Zrotation Xrotation Yrotation
    JOINT KneeLeft
    {
      OFFSET 15.823168 -31.334590 6.372124
      CHANNELS 3 Zrotation Xrotation Yrotation
      JOINT AnkleLeft
      {
        OFFSET -18.844976 -32.222535 -14.996449
        CHANNELS 3 Zrotation Xrotation Yrotation
        JOINT FootLeft
        {
          OFFSET 0.400377 -3.578125 -13.211710
          CHANNELS 3 Zrotation Xrotation Yrotation
          End Site
          {
            OFFSET 0 0 0
          }
        }
      }
    }
  }
  JOINT HipRight
  {
    OFFSET 4.471787 0.762870 -2.053748
    CHANNELS 3 Zrotation Xrotation Yrotation
    JOINT KneeRight
    {
      OFFSET -14.476100 -35.008678 -4.872746
      CHANNELS 3 Zrotation Xrotation Yrotation
      JOINT AnkleRight
      {
        OFFSET 18.228640 -30.507447 8.985463
        CHANNELS 3 Zrotation Xrotation Yrotation
        JOINT FootRight
        {
          OFFSET -10.510247 -2.036507 -11.386277
          CHANNELS 3 Zrotation Xrotation Yrotation
          End Site
          {
            OFFSET 0 0 0
          }
        }
      }
    }
  }
}
MOTION
Frames: 10
Frame Time: 0.033333
82.227166 73.338366 327.936453 -0.000000 0.000000 -13.058518 0.000000 0.000000 13.058518 -0.000000 0.000000 0.000000 -0.000000 0.000000 0.000000 0.000000 0.000000 0.000000 -0.000000 0.000000 0.000000 -0.000000 0.000000 0.000000 -0.000000 0.000000 0.000000 -0.000000 0.000000 0.000000 0.000000 0.000000 0.000000 0.000000 0.000000 0.000000 -0.000000 0.000000 0.000000 -0.000000 0.000000 0.000000 -0.000000 0.000000 0.000000 -0.000000 0.000000 0.000000 0.000000 0.000000 0.000000 0.000000 0.000000 0.000000 0.000000 0.000000 13.058518 -0.000000 0.000000 0.000000 -0.000000 0.000000 0.000000 0.000000 0.000000 0.000000 0.000000 0.000000 13.058518 -0.000000 0.000000 0.000000 -0.000000 0.000000 0.000000 0.000000 0.000000 0.000000
81.759992 73.532086 327.723194 -0.496293 0.157758 -17.234108 0.520750 -0.003630 17.234807 -0.000000 0.000000 0.000000 5.663265 -0.135282 0.335454 0.000000 0.000000 0.000000 -0.000000 0.000000 0.000000 -0.048786 2.232614 -0.572892 3.608134 -0.205508 1.033432 -1.553979 2.585343 -1.385482 0.000000 0.000000 0.000000 0.000000 0.000000 0.000000 2.605115 -0.477170 0.495365 -3.041652 -0.704976 -0.985020 1.008100 1.800070 1.141129 -2.392573 -4.056824 -1.320689 0.000000 0.000000 0.000000 0.000000 0.000000 0.000000 0.520750 -0.003630 17.234807 -0.000000 0.000000 0.000000 -0.000000 0.000000 0.000000 0.000000 0.000000 0.000000 2.109719 0.733954 16.884304 -1.734695 -0.244060 0.336680 -0.000000 0.000000 0.000000 0.000000 0.000000 0.000000
81.406369 73.680573 327.535291 -0.866547 0.288178 -20.700376 0.912466 0.036754 20.702262 -0.000000 0.000000 0.000000 11.566026 -0.258511 0.649003 0.000000 0.000000 0.000000 -0.000000 0.000000 0.000000 -0.036736 4.086248 -1.038428 6.583770 -0.203432 1.994328 -2.927880 4.287270 -2.575976 0.000000 0.000000 0.000000 0.000000 0.000000 0.000000 4.634394 -0.930871 0.838312 -5.770293 -1.218138 -1.802906 2.037220 4.202923 2.519598 -4.663589 -8.697213 -3.074831 0.000000 0.000000 0.000000 0.000000 0.000000 0.000000 1.148077 -1.157713 20.058012 1.063880 0.493226 0.648689 -0.867307 0.719521 -0.011623 0.000000 0.000000 0.000000 3.592733 1.482120 20.072799 -3.013479 -0.436339 0.582452 0.322712 -0.542319 1.038652 0.000000 0.000000 0.000000
81.166298 73.783828 327.372743 -1.108498 0.390626 -23.044074 1.172940 0.074497 23.047090 -0.000000 0.000000 0.000000 17.281611 -0.371686 0.904954 0.000000 0.000000 0.000000 -0.042289 0.810660 -0.210278 0.049623 4.765243 -1.191348 8.828673 -0.108867 2.804508 -3.932817 5.477534 -3.559057 0.000000 0.000000 0.000000 0.000000 0.000000 0.000000 6.080729 -1.373994 1.020221 -8.172869 -1.556708 -2.460703 2.771992 7.612199 4.219261 -6.630961 -14.243903 -5.402033 0.000000 0.000000 0.000000 0.000000 0.000000 0.000000 1.619599 -1.466002 22.210951 1.316121 0.627205 0.865776 -1.132283 0.985168 -0.039077 0.000000 0.000000 0.000000 4.501666 2.053434 22.226065 -3.829800 -0.569918 0.740134 0.435422 -0.723393 1.377238 0.000000 0.000000 0.000000
81.039779 73.841850 327.235549 -1.220638 0.464639 -23.961055 0.432837 -0.004826 23.941943 0.827176 -0.284095 0.025806 22.336742 -0.484342 1.069390 0.000000 0.000000 0.000000 -0.122286 1.148283 -0.306449 0.219497 5.570529 -1.360059 10.257618 -0.034459 3.409936 -4.411360 6.413698 -4.321510 0.000000 0.000000 0.000000 0.000000 0.000000 0.000000 6.942842 -1.815753 1.034273 -10.247770 -1.733590 -2.964952 2.732350 12.319663 6.317193 -8.027891 -20.971268 -8.348037 0.000000 0.000000 0.000000 0.000000 0.000000 0.000000 1.955435 -1.647053 23.029370 1.378375 0.671080 1.011082 -1.284526 1.188014 -0.082715 0.000000 0.000000 0.000000 4.897641 2.300680 23.055642 -4.179412 -0.640361 0.811773 0.513706 -0.844701 1.593558 0.000000 0.000000 0.000000
81.026811 73.854640 327.123711 -1.202203 0.509914 -23.325132 0.384925 -0.033100 23.305731 0.861977 -0.326733 0.026916 26.328799 -0.608890 1.119015 0.000000 0.000000 0.000000 -0.234874 1.519691 -0.415083 0.454558 6.012186 -1.421096 10.782268 -0.086315 3.773122 -4.219714 7.281730 -4.848991 0.000000 0.000000 0.000000 0.000000 0.000000 0.000000 7.220481 -2.260828 0.873918 -11.999342 -1.757797 -3.320080 1.492754 18.019698 8.808936 -8.509714 -28.676641 -11.581131 0.000000 0.000000 0.000000 0.000000 0.000000 0.000000 2.129439 -1.730254 22.389383 1.249574 0.618215 1.083896 -1.323961 1.327958 -0.143387 0.000000 0.000000 0.000000 4.809528 2.157029 22.443196 -3.902936 -1.378125 0.405723 0.412268 -0.168842 2.075762 0.000000 0.000000 0.000000
81.208768 73.787077 327.066146 -0.946490 0.490082 -18.910978 0.198582 -0.100713 18.892383 0.791394 -0.330137 0.024444 33.814407 -1.770938 -0.284897 0.000000 0.000000 0.000000 -0.387307 2.033946 -0.563939 0.970077 5.743449 -1.222087 11.942371 -0.548457 4.012940 -4.642530 8.239288 -5.244329 0.000000 0.000000 0.000000 0.000000 0.000000 0.000000 4.885039 -2.633341 -0.065017 -13.499770 -1.393103 -3.533347 -3.396915 25.876155 12.430409 -2.153684 -38.175356 -11.770450 0.000000 0.000000 0.000000 0.000000 0.000000 0.000000 2.128322 -1.549631 18.209902 0.657099 0.261028 0.969759 -0.706921 1.416506 -2.144232 0.000000 0.000000 0.000000 3.588965 1.214631 18.294714 -2.809938 -1.456023 0.024773 0.554542 0.037765 2.212998 0.000000 0.000000 0.000000
81.577155 73.670255 327.047439 -0.483918 0.444436 -14.304839 0.578734 -0.311072 14.308287 -0.000000 0.000000 0.000000 32.859086 -2.534336 -1.632987 0.000000 0.000000 0.000000 -0.588518 2.556830 -0.719808 1.285574 5.588823 -1.107331 9.948444 -2.219580 3.889373 -3.391650 11.045273 -5.473494 0.000000 0.000000 0.000000 0.000000 0.000000 0.000000 3.743152 -3.225960 -0.776527 -14.421168 -0.900190 -3.351628 -3.024966 27.408410 13.875066 -0.231237 -40.970711 -11.492553 0.000000 0.000000 0.000000 0.000000 0.000000 0.000000 1.703641 -1.237669 13.907152 -0.093741 -0.139333 0.834426 -0.356574 1.341607 -1.888157 0.000000 0.000000 0.000000 1.615342 0.285575 14.013948 -1.252628 -1.495603 -0.437929 0.630558 0.339274 2.184335 0.000000 0.000000 0.000000
81.840574 73.576604 326.993551 -0.146156 0.447506 -11.285688 0.230913 -0.410247 11.287086 -0.000000 0.000000 0.000000 32.242255 -1.919384 -0.682875 0.000000 0.000000 0.000000 -0.813665 2.999078 -0.856947 1.562784 5.210518 -0.945167 6.316544 -4.045018 3.282557 -0.201257 14.396862 -5.547175 0.000000 0.000000 0.000000 0.000000 0.000000 0.000000 3.960199 -3.565180 -0.902189 -15.473356 -0.718893 -3.421643 -3.940110 28.722974 14.776877 8.906997 -46.545656 -6.601902 0.000000 0.000000 0.000000 0.000000 0.000000 0.000000 1.625366 -1.026307 11.116433 -0.708083 -0.431430 0.713783 -0.239588 1.376646 -1.561290 0.000000 0.000000 0.000000 0.230913 -0.410247 11.287086 -0.166986 -1.372339 -0.868889 0.570633 0.726911 1.971506 0.000000 0.000000 0.000000
82.104766 73.494195 326.937219 0.176220 0.434103 -9.554938 -0.101721 -0.457331 9.553865 -0.000000 0.000000 0.000000 32.287284 -1.087518 0.708610 0.000000 0.000000 0.000000 -1.041753 3.339416 -0.967800 1.932720 4.378427 -0.636358 -0.339361 -3.095955 1.809843 5.475937 15.033712 -5.005881 0.000000 0.000000 0.000000 0.000000 0.000000 0.000000 3.427562 -3.736668 -1.179461 -15.613574 -0.632430 -3.344259 -4.218284 28.564833 14.571633 16.492806 -43.011141 -1.156021 0.000000 0.000000 0.000000 0.000000 0.000000 0.000000 1.570718 -1.040028 9.461866 -0.928889 -0.525401 0.643350 -0.390527 1.462651 -1.312855 0.000000 0.000000 0.000000 -1.222564 -0.553013 9.661678 1.015068 -1.525670 -1.001493 0.434240 0.894701 1.792695 0.000000 0.000000 0.000000
